<?xml version="1.0" encoding="UTF-8" standalone="no"?>
<!DOCTYPE svg PUBLIC "-//W3C//DTD SVG 1.1//EN" "http://www.w3.org/Graphics/SVG/1.1/DTD/svg11.dtd">
<svg height="100%" stroke-miterlimit="10" style="fill-rule:nonzero;clip-rule:evenodd;stroke-linecap:round;stroke-linejoin:round;" version="1.1" viewBox="0 0 150 150" width="100%" xml:space="preserve" xmlns="http://www.w3.org/2000/svg" xmlns:vectornator="http://vectornator.io" xmlns:xlink="http://www.w3.org/1999/xlink">
<defs/>
<g id="Untitled" vectornator:layerName="Untitled">
<g opacity="1">
<path d="M47.7179 38.7049C39.6179 41.0049 34.9179 47.1049 30.2179 61.4049L27.5179 69.7049L22.1179 69.1049C19.1179 68.8049 14.3179 67.6049 11.4179 66.5049C4.71788 63.9049 3.11788 64.0049 1.31788 66.7049C-0.582124 69.8049 0.817876 79.8049 4.31788 87.0049C16.4179 112.805 49.6179 119.305 71.2179 100.305L74.7179 97.3049L78.2179 100.305C99.8179 119.305 133.018 112.805 145.118 87.0049C148.618 79.8049 150.018 69.8049 148.118 66.7049C146.318 64.0049 144.718 63.9049 138.018 66.5049C135.118 67.6049 130.318 68.8049 127.318 69.1049L121.918 69.7049L119.218 61.4049C114.218 46.2049 109.618 40.6049 100.118 38.4049C93.7179 36.9049 85.7179 38.5049 79.3179 42.5049L74.7179 45.5049L70.1179 42.5049C63.1179 38.1049 54.8179 36.7049 47.7179 38.7049Z" fill="#2fae4b" fill-rule="nonzero" opacity="1" stroke="none"/>
<path d="M60.0179 48.6049C62.1179 49.1049 66.0179 51.6049 68.8179 54.1049C71.5179 56.5049 74.2179 58.5049 74.7179 58.5049C75.2179 58.5049 77.9179 56.5049 80.6179 54.1049C88.0179 47.5049 95.5179 45.9049 101.418 49.5049C105.118 51.7049 106.818 54.7049 109.218 63.0049C113.518 78.1049 118.218 81.3049 131.718 78.4049C134.518 77.8049 137.118 77.6049 137.418 77.9049C138.718 79.2049 133.118 88.8049 128.718 92.9049C120.418 100.705 108.318 103.405 96.9179 100.005C91.1179 98.3049 82.7179 92.1049 80.0179 87.5049C76.8179 81.9049 74.3179 82.4049 67.2179 89.9049C59.6179 97.9049 54.0179 100.705 44.2179 101.305C35.2179 101.805 27.2179 99.0049 20.7179 92.9049C16.3179 88.8049 10.7179 79.2049 12.0179 77.9049C12.3179 77.6049 14.9179 77.8049 17.7179 78.4049C31.2179 81.3049 35.9179 78.1049 40.2179 63.0049C42.6179 54.7049 44.3179 51.7049 48.0179 49.5049C51.6179 47.3049 54.5179 47.0049 60.0179 48.6049Z" fill="#94e986" fill-rule="nonzero" opacity="1" stroke="none"/>
</g>
</g>
</svg>
